<?xml version="1.0" encoding="UTF-8"?>
<svg width="11px" height="7px" viewBox="0 0 11 7" version="1.1" xmlns="http://www.w3.org/2000/svg" xmlns:xlink="http://www.w3.org/1999/xlink">
    <!-- Generator: Sketch 46.2 (44496) - http://www.bohemiancoding.com/sketch -->
    <title>smallchevron-down - deloitte-special_font-v2</title>
    <desc>Created with Sketch.</desc>
    <defs></defs>
    <g id="Page-1" stroke="none" stroke-width="1" fill="none" fill-rule="evenodd">
        <g id="Artboard-Copy" transform="translate(-520.000000, -305.000000)" fill="#FFFFFF">
            <path d="M529.625,305.234375 C529.781251,305.078124 529.973957,305 530.203125,305 C530.432293,305 530.630207,305.078124 530.796875,305.234375 C530.953126,305.390626 531.03125,305.583332 531.03125,305.8125 C531.03125,306.041668 530.953126,306.234374 530.796875,306.390625 L526.09375,311 C525.937499,311.156251 525.744793,311.234375 525.515625,311.234375 C525.286457,311.234375 525.088543,311.156251 524.921875,311 L520.234375,306.390625 C520.078124,306.234374 520,306.041668 520,305.8125 C520,305.583332 520.078124,305.390626 520.234375,305.234375 C520.401043,305.078124 520.598957,305 520.828125,305 C521.057293,305 521.249999,305.078124 521.40625,305.234375 L525.515625,309 L529.625,305.234375 Z" id="smallchevron-down---deloitte-special_font-v2" transform="translate(525.515625, 308.117188) rotate(-360.000000) translate(-525.515625, -308.117188) "></path>
        </g>
    </g>
</svg>