<?xml version="1.0" encoding="UTF-8"?>
<svg width="11px" height="7px" viewBox="0 0 11 7" version="1.1" xmlns="http://www.w3.org/2000/svg" xmlns:xlink="http://www.w3.org/1999/xlink">
    <!-- Generator: Sketch 46.2 (44496) - http://www.bohemiancoding.com/sketch -->
    <title>smallchevron-down - deloitte-special_font-v2</title>
    <desc>Created with Sketch.</desc>
    <defs></defs>
    <g id="Page-1" stroke="none" stroke-width="1" fill="none" fill-rule="evenodd">
        <g id="Artboard-Copy" transform="translate(-470.000000, -304.000000)" fill="#FFFFFF">
            <path d="M479.625,304.234375 C479.781251,304.078124 479.973957,304 480.203125,304 C480.432293,304 480.630207,304.078124 480.796875,304.234375 C480.953126,304.390626 481.03125,304.583332 481.03125,304.8125 C481.03125,305.041668 480.953126,305.234374 480.796875,305.390625 L476.09375,310 C475.937499,310.156251 475.744793,310.234375 475.515625,310.234375 C475.286457,310.234375 475.088543,310.156251 474.921875,310 L470.234375,305.390625 C470.078124,305.234374 470,305.041668 470,304.8125 C470,304.583332 470.078124,304.390626 470.234375,304.234375 C470.401043,304.078124 470.598957,304 470.828125,304 C471.057293,304 471.249999,304.078124 471.40625,304.234375 L475.515625,308 L479.625,304.234375 Z" id="smallchevron-down---deloitte-special_font-v2" transform="translate(475.515625, 307.117188) rotate(-180.000000) translate(-475.515625, -307.117188) "></path>
        </g>
    </g>
</svg>